<svg width="28" height="28" viewBox="0 0 28 28" fill="none" xmlns="http://www.w3.org/2000/svg">
<path d="M9.33333 6.70833C8.855 6.70833 8.45833 6.31166 8.45833 5.83333V2.33333C8.45833 1.85499 8.855 1.45833 9.33333 1.45833C9.81167 1.45833 10.2083 1.85499 10.2083 2.33333V5.83333C10.2083 6.31166 9.81167 6.70833 9.33333 6.70833Z" fill="#101828"/>
<path d="M18.6667 6.70833C18.1883 6.70833 17.7917 6.31166 17.7917 5.83333V2.33333C17.7917 1.85499 18.1883 1.45833 18.6667 1.45833C19.145 1.45833 19.5417 1.85499 19.5417 2.33333V5.83333C19.5417 6.31166 19.145 6.70833 18.6667 6.70833Z" fill="#101828"/>
<path d="M9.91667 16.9167C9.765 16.9167 9.61333 16.8817 9.47333 16.8234C9.32167 16.765 9.205 16.6833 9.08833 16.5783C8.87833 16.3567 8.75 16.065 8.75 15.75C8.75 15.5983 8.785 15.4467 8.84334 15.3067C8.90167 15.1667 8.98333 15.0384 9.08833 14.9217C9.205 14.8167 9.32167 14.735 9.47333 14.6767C9.89333 14.5017 10.4183 14.595 10.745 14.9217C10.955 15.1434 11.0833 15.4467 11.0833 15.75C11.0833 15.82 11.0717 15.9017 11.06 15.9834C11.0483 16.0534 11.025 16.1233 10.99 16.1933C10.9667 16.2633 10.9317 16.3333 10.885 16.4033C10.85 16.4617 10.7917 16.52 10.745 16.5783C10.5233 16.7883 10.22 16.9167 9.91667 16.9167Z" fill="#101828"/>
<path d="M14 16.9167C13.8483 16.9167 13.6967 16.8817 13.5567 16.8233C13.405 16.765 13.2883 16.6833 13.1717 16.5783C12.9617 16.3566 12.8333 16.065 12.8333 15.75C12.8333 15.5983 12.8683 15.4467 12.9267 15.3067C12.985 15.1667 13.0667 15.0383 13.1717 14.9217C13.2883 14.8167 13.405 14.735 13.5567 14.6766C13.9767 14.49 14.5017 14.595 14.8283 14.9217C15.0383 15.1433 15.1667 15.4467 15.1667 15.75C15.1667 15.82 15.155 15.9017 15.1433 15.9833C15.1317 16.0533 15.1083 16.1233 15.0733 16.1933C15.05 16.2633 15.015 16.3333 14.9683 16.4033C14.9333 16.4617 14.875 16.52 14.8283 16.5783C14.6067 16.7883 14.3033 16.9167 14 16.9167Z" fill="#101828"/>
<path d="M18.0833 16.9167C17.9317 16.9167 17.78 16.8817 17.64 16.8233C17.4883 16.765 17.3717 16.6833 17.255 16.5783C17.2083 16.52 17.1617 16.4617 17.115 16.4033C17.0683 16.3333 17.0333 16.2633 17.01 16.1933C16.975 16.1233 16.9517 16.0533 16.94 15.9833C16.9283 15.9017 16.9167 15.82 16.9167 15.75C16.9167 15.4467 17.045 15.1433 17.255 14.9217C17.3717 14.8167 17.4883 14.735 17.64 14.6766C18.0717 14.49 18.585 14.595 18.9117 14.9217C19.1217 15.1433 19.25 15.4467 19.25 15.75C19.25 15.82 19.2383 15.9017 19.2267 15.9833C19.215 16.0533 19.1917 16.1233 19.1567 16.1933C19.1333 16.2633 19.0983 16.3333 19.0517 16.4033C19.0167 16.4617 18.9583 16.52 18.9117 16.5783C18.69 16.7883 18.3867 16.9167 18.0833 16.9167Z" fill="#101828"/>
<path d="M9.91667 21C9.765 21 9.61333 20.965 9.47333 20.9067C9.33333 20.8483 9.205 20.7667 9.08833 20.6617C8.87833 20.44 8.75 20.1367 8.75 19.8333C8.75 19.6817 8.785 19.53 8.84334 19.39C8.90167 19.2383 8.98333 19.11 9.08833 19.005C9.52 18.5733 10.3133 18.5733 10.745 19.005C10.955 19.2267 11.0833 19.53 11.0833 19.8333C11.0833 20.1367 10.955 20.44 10.745 20.6617C10.5233 20.8717 10.22 21 9.91667 21Z" fill="#101828"/>
<path d="M14 21C13.6967 21 13.3933 20.8717 13.1717 20.6617C12.9617 20.44 12.8333 20.1367 12.8333 19.8333C12.8333 19.6817 12.8683 19.53 12.9267 19.39C12.985 19.2383 13.0667 19.11 13.1717 19.005C13.6033 18.5733 14.3967 18.5733 14.8283 19.005C14.9333 19.11 15.015 19.2383 15.0733 19.39C15.1317 19.53 15.1667 19.6817 15.1667 19.8333C15.1667 20.1367 15.0383 20.44 14.8283 20.6617C14.6067 20.8717 14.3033 21 14 21Z" fill="#101828"/>
<path d="M18.0833 21C17.78 21 17.4767 20.8717 17.255 20.6617C17.15 20.5567 17.0683 20.4284 17.01 20.2767C16.9517 20.1367 16.9167 19.985 16.9167 19.8334C16.9167 19.6817 16.9517 19.53 17.01 19.39C17.0683 19.2384 17.15 19.11 17.255 19.005C17.5233 18.7367 17.9317 18.6084 18.305 18.69C18.3867 18.7017 18.4567 18.725 18.5267 18.76C18.5967 18.7834 18.6667 18.8184 18.7367 18.8651C18.795 18.9001 18.8533 18.9584 18.9117 19.005C19.1217 19.2267 19.25 19.53 19.25 19.8334C19.25 20.1367 19.1217 20.44 18.9117 20.6617C18.69 20.8717 18.3867 21 18.0833 21Z" fill="#101828"/>
<path d="M23.9167 11.48H4.08333C3.605 11.48 3.20833 11.0833 3.20833 10.605C3.20833 10.1266 3.605 9.72997 4.08333 9.72997H23.9167C24.395 9.72997 24.7917 10.1266 24.7917 10.605C24.7917 11.0833 24.395 11.48 23.9167 11.48Z" fill="#101828"/>
<path d="M18.6667 26.5417H9.33333C5.075 26.5417 2.625 24.0917 2.625 19.8333V9.91666C2.625 5.65833 5.075 3.20833 9.33333 3.20833H18.6667C22.925 3.20833 25.375 5.65833 25.375 9.91666V19.8333C25.375 24.0917 22.925 26.5417 18.6667 26.5417ZM9.33333 4.95833C5.99667 4.95833 4.375 6.57999 4.375 9.91666V19.8333C4.375 23.17 5.99667 24.7917 9.33333 24.7917H18.6667C22.0033 24.7917 23.625 23.17 23.625 19.8333V9.91666C23.625 6.57999 22.0033 4.95833 18.6667 4.95833H9.33333Z" fill="#101828"/>
</svg>
