<svg width="29" height="28" viewBox="0 0 29 28" fill="none" xmlns="http://www.w3.org/2000/svg">
<path d="M14.5 26.6117C13.695 26.6117 12.9367 26.2033 12.4 25.4917L10.65 23.1583C10.615 23.1117 10.475 23.0417 10.405 23.0417H9.83334C4.96834 23.0417 1.95834 21.7233 1.95834 15.1667V9.33333C1.95834 4.17666 4.67667 1.45833 9.83334 1.45833H16.8333C17.3117 1.45833 17.7083 1.85499 17.7083 2.33333C17.7083 2.81166 17.3117 3.20833 16.8333 3.20833H9.83334C5.65667 3.20833 3.70834 5.15666 3.70834 9.33333V15.1667C3.70834 20.44 5.51667 21.2917 9.83334 21.2917H10.4167C11.0117 21.2917 11.6883 21.63 12.05 22.1083L13.8 24.4417C14.2083 24.9783 14.7917 24.9783 15.2 24.4417L16.95 22.1083C17.335 21.595 17.9417 21.2917 18.5833 21.2917H19.1667C23.3433 21.2917 25.2917 19.3433 25.2917 15.1667V11.6667C25.2917 11.1883 25.6883 10.7917 26.1667 10.7917C26.645 10.7917 27.0417 11.1883 27.0417 11.6667V15.1667C27.0417 20.3233 24.3233 23.0417 19.1667 23.0417H18.5833C18.49 23.0417 18.4083 23.0883 18.35 23.1583L16.6 25.4917C16.0633 26.2033 15.305 26.6117 14.5 26.6117Z" fill="#101828"/>
<path d="M14.5 14C13.8467 14 13.3333 13.475 13.3333 12.8333C13.3333 12.1917 13.8583 11.6667 14.5 11.6667C15.1417 11.6667 15.6667 12.1917 15.6667 12.8333C15.6667 13.475 15.1533 14 14.5 14Z" fill="#101828"/>
<path d="M19.1667 14C18.5133 14 18 13.475 18 12.8333C18 12.1917 18.525 11.6667 19.1667 11.6667C19.8083 11.6667 20.3333 12.1917 20.3333 12.8333C20.3333 13.475 19.82 14 19.1667 14Z" fill="#101828"/>
<path d="M9.83334 14C9.18001 14 8.66667 13.475 8.66667 12.8333C8.66667 12.1917 9.19167 11.6667 9.83334 11.6667C10.475 11.6667 11 12.1917 11 12.8333C11 13.475 10.4867 14 9.83334 14Z" fill="#101828"/>
<path d="M23.25 9.04166C21.1617 9.04166 19.4583 7.33833 19.4583 5.25C19.4583 3.16166 21.1617 1.45833 23.25 1.45833C25.3383 1.45833 27.0417 3.16166 27.0417 5.25C27.0417 7.33833 25.3383 9.04166 23.25 9.04166ZM23.25 3.20833C22.13 3.20833 21.2083 4.13 21.2083 5.25C21.2083 6.37 22.13 7.29166 23.25 7.29166C24.37 7.29166 25.2917 6.37 25.2917 5.25C25.2917 4.13 24.37 3.20833 23.25 3.20833Z" fill="#F04438"/>
</svg>
