<svg width="29" height="28" viewBox="0 0 29 28" fill="none" xmlns="http://www.w3.org/2000/svg">
<path d="M14.25 12.2733C13.7717 12.2733 13.375 11.8767 13.375 11.3983V7.51334C13.375 7.035 13.7717 6.63834 14.25 6.63834C14.7283 6.63834 15.125 7.035 15.125 7.51334V11.3983C15.125 11.8883 14.7283 12.2733 14.25 12.2733Z" fill="#F04438"/>
<path d="M14.2733 23.7417C11.2633 23.7417 8.265 23.2633 5.40667 22.3067C4.345 21.9567 3.54 21.1983 3.19 20.2417C2.84 19.285 2.95667 18.1883 3.52834 17.2317L5.01 14.7583C5.33667 14.21 5.62834 13.1833 5.62834 12.5417V10.0917C5.62834 5.32 9.50167 1.44667 14.2733 1.44667C19.045 1.44667 22.9183 5.32 22.9183 10.0917V12.5417C22.9183 13.1717 23.21 14.21 23.5367 14.7583L25.0183 17.2317C25.5667 18.1417 25.66 19.2267 25.2983 20.2183C24.9367 21.21 24.1433 21.9683 23.14 22.3067C20.2817 23.275 17.2833 23.7417 14.2733 23.7417ZM14.2733 3.20834C10.47 3.20834 7.37834 6.3 7.37834 10.1033V12.5533C7.37834 13.4983 7.005 14.8633 6.515 15.6683L5.03334 18.1533C4.73 18.655 4.66 19.1917 4.835 19.6583C5.01 20.125 5.40667 20.475 5.96667 20.6617C11.3333 22.4467 17.2367 22.4467 22.6033 20.6617C23.105 20.4983 23.49 20.125 23.665 19.635C23.8517 19.145 23.7933 18.6083 23.525 18.1533L22.0433 15.68C21.5533 14.875 21.18 13.51 21.18 12.565V10.115C21.1683 6.3 18.0767 3.20834 14.2733 3.20834Z" fill="#101828"/>
<path d="M14.25 26.7167C13.0017 26.7167 11.7767 26.2033 10.89 25.3167C10.0033 24.43 9.49 23.205 9.49 21.9567H11.24C11.24 22.75 11.5667 23.52 12.1267 24.08C12.6867 24.64 13.4567 24.9667 14.25 24.9667C15.9067 24.9667 17.26 23.6133 17.26 21.9567H19.01C19.01 24.5817 16.875 26.7167 14.25 26.7167Z" fill="#101828"/>
</svg>
